<?xml version="1.0" encoding="UTF-8" standalone="no"?>
<!DOCTYPE svg PUBLIC "-//W3C//DTD SVG 1.1//EN"
 "http://www.w3.org/Graphics/SVG/1.1/DTD/svg11.dtd">
<!-- Generated by graphviz version 2.43.0 (0)
 -->
<!-- Title: g Pages: 1 -->
<svg width="360pt" height="313pt"
 viewBox="0.00 0.00 360.00 312.83" xmlns="http://www.w3.org/2000/svg" xmlns:xlink="http://www.w3.org/1999/xlink">
<g id="graph0" class="graph" transform="scale(1.58 1.58) rotate(0) translate(4 489.74)">
<title>g</title>
<polygon fill="white" stroke="transparent" points="-4,4 -4,-489.74 564.19,-489.74 564.19,4 -4,4"/>
<!-- cc -->
<g id="node1" class="node">
<title>cc</title>
<ellipse fill="none" stroke="black" cx="70.19" cy="-467.74" rx="70.39" ry="18"/>
<text text-anchor="middle" x="70.19" y="-464.04" font-family="Arial" font-size="14.00">C++ sources</text>
</g>
<!-- linking -->
<g id="node10" class="node">
<title>linking</title>
<polygon fill="none" stroke="black" points="274.19,-252 106.19,-252 106.19,-216 274.19,-216 274.19,-252"/>
<text text-anchor="middle" x="190.19" y="-230.3" font-family="Arial" font-size="14.00">Compiling and linking</text>
</g>
<!-- cc&#45;&gt;linking -->
<g id="edge3" class="edge">
<title>cc&#45;&gt;linking</title>
<path fill="none" stroke="black" d="M69.94,-449.57C70.25,-415.65 75.12,-338.94 110.19,-288 118.71,-275.62 131.16,-265.39 143.71,-257.32"/>
<polygon fill="black" stroke="black" points="145.62,-260.26 152.36,-252.09 142,-254.27 145.62,-260.26"/>
</g>
<!-- m_cc -->
<g id="node2" class="node">
<title>m_cc</title>
<ellipse fill="none" stroke="black" cx="190.19" cy="-314.87" rx="71.49" ry="18"/>
<text text-anchor="middle" x="190.19" y="-311.17" font-family="Arial" font-size="14.00">*_m.cc/h files</text>
</g>
<!-- m_cc&#45;&gt;linking -->
<g id="edge4" class="edge">
<title>m_cc&#45;&gt;linking</title>
<path fill="none" stroke="black" d="M190.19,-296.76C190.19,-286.73 190.19,-273.84 190.19,-262.42"/>
<polygon fill="black" stroke="black" points="193.69,-262.08 190.19,-252.08 186.69,-262.08 193.69,-262.08"/>
</g>
<!-- msg -->
<g id="node3" class="node">
<title>msg</title>
<ellipse fill="none" stroke="black" cx="211.19" cy="-467.74" rx="52.79" ry="18"/>
<text text-anchor="middle" x="211.19" y="-464.04" font-family="Arial" font-size="14.00">MSG files</text>
</g>
<!-- opp_msgc -->
<g id="node9" class="node">
<title>opp_msgc</title>
<polygon fill="none" stroke="black" points="243.69,-413.74 156.69,-413.74 156.69,-377.74 243.69,-377.74 243.69,-413.74"/>
<text text-anchor="middle" x="200.19" y="-392.04" font-family="Arial" font-size="14.00">opp_msgc</text>
</g>
<!-- msg&#45;&gt;opp_msgc -->
<g id="edge1" class="edge">
<title>msg&#45;&gt;opp_msgc</title>
<path fill="none" stroke="black" d="M208.47,-449.44C207.26,-441.72 205.81,-432.45 204.45,-423.85"/>
<polygon fill="black" stroke="black" points="207.89,-423.18 202.88,-413.84 200.98,-424.27 207.89,-423.18"/>
</g>
<!-- ned -->
<g id="node4" class="node">
<title>ned</title>
<ellipse fill="none" stroke="black" cx="360.19" cy="-162" rx="51.99" ry="18"/>
<text text-anchor="middle" x="360.19" y="-158.3" font-family="Arial" font-size="14.00">NED files</text>
</g>
<!-- running -->
<g id="node11" class="node">
<title>running</title>
<polygon fill="none" stroke="black" points="397.19,-108 323.19,-108 323.19,-72 397.19,-72 397.19,-108"/>
<text text-anchor="middle" x="360.19" y="-86.3" font-family="Arial" font-size="14.00">Running</text>
</g>
<!-- ned&#45;&gt;running -->
<g id="edge8" class="edge">
<title>ned&#45;&gt;running</title>
<path fill="none" stroke="black" d="M360.19,-143.7C360.19,-135.98 360.19,-126.71 360.19,-118.11"/>
<polygon fill="black" stroke="black" points="363.69,-118.1 360.19,-108.1 356.69,-118.1 363.69,-118.1"/>
</g>
<!-- ini -->
<g id="node5" class="node">
<title>ini</title>
<ellipse fill="none" stroke="black" cx="495.19" cy="-162" rx="64.99" ry="18"/>
<text text-anchor="middle" x="495.19" y="-158.3" font-family="Arial" font-size="14.00">omnetpp.ini</text>
</g>
<!-- ini&#45;&gt;running -->
<g id="edge9" class="edge">
<title>ini&#45;&gt;running</title>
<path fill="none" stroke="black" d="M465.9,-145.81C447.26,-136.14 422.81,-123.47 402.13,-112.74"/>
<polygon fill="black" stroke="black" points="403.71,-109.62 393.22,-108.13 400.49,-115.84 403.71,-109.62"/>
</g>
<!-- libs -->
<g id="node6" class="node">
<title>libs</title>
<ellipse fill="none" stroke="black" cx="403.19" cy="-314.87" rx="123.07" ry="26.74"/>
<text text-anchor="middle" x="403.19" y="-318.67" font-family="Arial" font-size="14.00">Simulation kernel and</text>
<text text-anchor="middle" x="403.19" y="-303.67" font-family="Arial" font-size="14.00">user interface libraries</text>
</g>
<!-- libs&#45;&gt;linking -->
<g id="edge5" class="edge">
<title>libs&#45;&gt;linking</title>
<path fill="none" stroke="black" d="M342.44,-291.37C311.93,-280.08 275.23,-266.49 245.51,-255.48"/>
<polygon fill="black" stroke="black" points="246.72,-252.2 236.12,-252.01 244.28,-258.76 246.72,-252.2"/>
</g>
<!-- prog -->
<g id="node7" class="node">
<title>prog</title>
<ellipse fill="none" stroke="black" cx="190.19" cy="-162" rx="100.18" ry="18"/>
<text text-anchor="middle" x="190.19" y="-158.3" font-family="Arial" font-size="14.00">Simulation program</text>
</g>
<!-- prog&#45;&gt;running -->
<g id="edge7" class="edge">
<title>prog&#45;&gt;running</title>
<path fill="none" stroke="black" d="M228.35,-145.29C253.54,-134.92 286.73,-121.25 313.5,-110.23"/>
<polygon fill="black" stroke="black" points="315.13,-113.34 323.05,-106.3 312.47,-106.87 315.13,-113.34"/>
</g>
<!-- result -->
<g id="node8" class="node">
<title>result</title>
<ellipse fill="none" stroke="black" cx="360.19" cy="-18" rx="59.59" ry="18"/>
<text text-anchor="middle" x="360.19" y="-14.3" font-family="Arial" font-size="14.00">Result files</text>
</g>
<!-- opp_msgc&#45;&gt;m_cc -->
<g id="edge2" class="edge">
<title>opp_msgc&#45;&gt;m_cc</title>
<path fill="none" stroke="black" d="M198.02,-377.63C196.74,-367.5 195.08,-354.44 193.63,-342.94"/>
<polygon fill="black" stroke="black" points="197.09,-342.43 192.36,-332.95 190.15,-343.31 197.09,-342.43"/>
</g>
<!-- linking&#45;&gt;prog -->
<g id="edge6" class="edge">
<title>linking&#45;&gt;prog</title>
<path fill="none" stroke="black" d="M190.19,-215.7C190.19,-207.98 190.19,-198.71 190.19,-190.11"/>
<polygon fill="black" stroke="black" points="193.69,-190.1 190.19,-180.1 186.69,-190.1 193.69,-190.1"/>
</g>
<!-- running&#45;&gt;result -->
<g id="edge10" class="edge">
<title>running&#45;&gt;result</title>
<path fill="none" stroke="black" d="M360.19,-71.7C360.19,-63.98 360.19,-54.71 360.19,-46.11"/>
<polygon fill="black" stroke="black" points="363.69,-46.1 360.19,-36.1 356.69,-46.1 363.69,-46.1"/>
</g>
</g>
</svg>
