<?xml version="1.0" encoding="UTF-8" standalone="no"?>
<!DOCTYPE svg PUBLIC "-//W3C//DTD SVG 1.1//EN"
 "http://www.w3.org/Graphics/SVG/1.1/DTD/svg11.dtd">
<!-- Generated by graphviz version 2.43.0 (0)
 -->
<!-- Title: g Pages: 1 -->
<svg width="252pt" height="202pt"
 viewBox="0.00 0.00 252.00 201.75" xmlns="http://www.w3.org/2000/svg" xmlns:xlink="http://www.w3.org/1999/xlink">
<g id="graph0" class="graph" transform="scale(1.37 1.37) rotate(0) translate(4 273)">
<title>g</title>
<polygon fill="white" stroke="transparent" points="-4,4 -4,-273 342,-273 342,4 -4,4"/>
<!-- cObject -->
<g id="node1" class="node">
<title>cObject</title>
<polygon fill="none" stroke="black" points="217.5,-269 148.5,-269 148.5,-233 217.5,-233 217.5,-269"/>
<text text-anchor="middle" x="183" y="-247.3" font-family="Arial" font-size="14.00">cObject</text>
</g>
<!-- cNamedObject -->
<g id="node2" class="node">
<title>cNamedObject</title>
<polygon fill="none" stroke="black" points="242.5,-196 123.5,-196 123.5,-160 242.5,-160 242.5,-196"/>
<text text-anchor="middle" x="183" y="-174.3" font-family="Arial" font-size="14.00">cNamedObject</text>
</g>
<!-- cObject&#45;&gt;cNamedObject -->
<g id="edge1" class="edge">
<title>cObject&#45;&gt;cNamedObject</title>
<path fill="none" stroke="black" d="M183,-222.75C183,-213.77 183,-204.03 183,-196.03"/>
<polygon fill="black" stroke="black" points="179.5,-222.81 183,-232.81 186.5,-222.81 179.5,-222.81"/>
</g>
<!-- cOwnedObject -->
<g id="node3" class="node">
<title>cOwnedObject</title>
<polygon fill="none" stroke="black" points="242,-123 124,-123 124,-87 242,-87 242,-123"/>
<text text-anchor="middle" x="183" y="-101.3" font-family="Arial" font-size="14.00">cOwnedObject</text>
</g>
<!-- cNamedObject&#45;&gt;cOwnedObject -->
<g id="edge2" class="edge">
<title>cNamedObject&#45;&gt;cOwnedObject</title>
<path fill="none" stroke="black" d="M183,-149.75C183,-140.77 183,-131.03 183,-123.03"/>
<polygon fill="black" stroke="black" points="179.5,-149.81 183,-159.81 186.5,-149.81 179.5,-149.81"/>
</g>
<!-- cModule -->
<g id="node4" class="node">
<title>cModule</title>
<polygon fill="none" stroke="black" points="74,-36 0,-36 0,0 74,0 74,-36"/>
<text text-anchor="middle" x="37" y="-14.3" font-family="Arial" font-size="14.00">cModule</text>
</g>
<!-- cOwnedObject&#45;&gt;cModule -->
<g id="edge3" class="edge">
<title>cOwnedObject&#45;&gt;cModule</title>
<path fill="none" stroke="black" d="M144.78,-81.75C120.31,-67.5 89.05,-49.3 66.5,-36.18"/>
<polygon fill="black" stroke="black" points="143.05,-84.79 153.45,-86.8 146.57,-78.74 143.05,-84.79"/>
<text text-anchor="middle" x="126" y="-57.8" font-family="Arial" font-size="14.00">...</text>
</g>
<!-- cMessage -->
<g id="node5" class="node">
<title>cMessage</title>
<polygon fill="none" stroke="black" points="177.5,-36 92.5,-36 92.5,0 177.5,0 177.5,-36"/>
<text text-anchor="middle" x="135" y="-14.3" font-family="Arial" font-size="14.00">cMessage</text>
</g>
<!-- cOwnedObject&#45;&gt;cMessage -->
<g id="edge4" class="edge">
<title>cOwnedObject&#45;&gt;cMessage</title>
<path fill="none" stroke="black" d="M168.27,-77.91C160.61,-64.35 151.46,-48.15 144.7,-36.18"/>
<polygon fill="black" stroke="black" points="165.32,-79.81 173.29,-86.8 171.42,-76.37 165.32,-79.81"/>
<text text-anchor="middle" x="169" y="-57.8" font-family="Arial" font-size="14.00">...</text>
</g>
<!-- cQueue -->
<g id="node6" class="node">
<title>cQueue</title>
<polygon fill="none" stroke="black" points="266,-36 196,-36 196,0 266,0 266,-36"/>
<text text-anchor="middle" x="231" y="-14.3" font-family="Arial" font-size="14.00">cQueue</text>
</g>
<!-- cOwnedObject&#45;&gt;cQueue -->
<g id="edge5" class="edge">
<title>cOwnedObject&#45;&gt;cQueue</title>
<path fill="none" stroke="black" d="M197.73,-77.91C205.39,-64.35 214.54,-48.15 221.3,-36.18"/>
<polygon fill="black" stroke="black" points="194.58,-76.37 192.71,-86.8 200.68,-79.81 194.58,-76.37"/>
</g>
<!-- others -->
<g id="node7" class="node">
<title>others</title>
<polygon fill="none" stroke="black" points="338,-36 284,-36 284,0 338,0 338,-36"/>
<text text-anchor="middle" x="311" y="-14.3" font-family="Arial" font-size="14.00">...</text>
</g>
<!-- cOwnedObject&#45;&gt;others -->
<g id="edge6" class="edge">
<title>cOwnedObject&#45;&gt;others</title>
<path fill="none" stroke="black" d="M217.36,-81.18C238.68,-67.03 265.63,-49.13 285.14,-36.18"/>
<polygon fill="black" stroke="black" points="215.3,-78.35 208.9,-86.8 219.17,-84.18 215.3,-78.35"/>
</g>
</g>
</svg>
