<?xml version="1.0" encoding="UTF-8" standalone="no"?>
<!DOCTYPE svg PUBLIC "-//W3C//DTD SVG 1.1//EN"
 "http://www.w3.org/Graphics/SVG/1.1/DTD/svg11.dtd">
<!-- Generated by graphviz version 2.43.0 (0)
 -->
<!-- Title: g Pages: 1 -->
<svg width="396pt" height="195pt"
 viewBox="0.00 0.00 396.00 195.36" xmlns="http://www.w3.org/2000/svg" xmlns:xlink="http://www.w3.org/1999/xlink">
<g id="graph0" class="graph" transform="scale(1.42 1.42) rotate(0) translate(4 273)">
<title>g</title>
<polygon fill="white" stroke="transparent" points="-4,4 -4,-273 557.5,-273 557.5,4 -4,4"/>
<!-- cObject -->
<g id="node1" class="node">
<title>cObject</title>
<polygon fill="none" stroke="black" points="187.5,-269 118.5,-269 118.5,-233 187.5,-233 187.5,-269"/>
<text text-anchor="middle" x="153" y="-247.3" font-family="Arial" font-size="14.00">cObject</text>
</g>
<!-- cComponent -->
<g id="node2" class="node">
<title>cComponent</title>
<polygon fill="none" stroke="black" points="205,-182 101,-182 101,-146 205,-146 205,-182"/>
<text text-anchor="middle" x="153" y="-160.3" font-family="Arial" font-size="14.00">cComponent</text>
</g>
<!-- cObject&#45;&gt;cComponent -->
<g id="edge1" class="edge">
<title>cObject&#45;&gt;cComponent</title>
<path fill="none" stroke="black" d="M153,-222.73C153,-209.42 153,-193.81 153,-182.18"/>
<polygon fill="black" stroke="black" points="149.5,-222.8 153,-232.8 156.5,-222.8 149.5,-222.8"/>
<text text-anchor="middle" x="160" y="-203.8" font-family="Arial" font-size="14.00">...</text>
</g>
<!-- cModule -->
<g id="node3" class="node">
<title>cModule</title>
<polygon fill="none" stroke="black" points="143,-109 69,-109 69,-73 143,-73 143,-109"/>
<text text-anchor="middle" x="106" y="-87.3" font-family="Arial" font-size="14.00">cModule</text>
</g>
<!-- cComponent&#45;&gt;cModule -->
<g id="edge2" class="edge">
<title>cComponent&#45;&gt;cModule</title>
<path fill="none" stroke="black" d="M135.93,-137.21C129.72,-127.83 122.86,-117.46 117.27,-109.03"/>
<polygon fill="black" stroke="black" points="133.18,-139.41 141.62,-145.81 139.02,-135.54 133.18,-139.41"/>
</g>
<!-- cChannel -->
<g id="node4" class="node">
<title>cChannel</title>
<polygon fill="none" stroke="black" points="330.5,-109 249.5,-109 249.5,-73 330.5,-73 330.5,-109"/>
<text text-anchor="middle" x="290" y="-87.3" font-family="Arial" font-size="14.00">cChannel</text>
</g>
<!-- cComponent&#45;&gt;cChannel -->
<g id="edge3" class="edge">
<title>cComponent&#45;&gt;cChannel</title>
<path fill="none" stroke="black" d="M194.71,-141.38C214.69,-131.03 238.27,-118.81 256.98,-109.11"/>
<polygon fill="black" stroke="black" points="193.08,-138.28 185.81,-145.99 196.3,-144.5 193.08,-138.28"/>
</g>
<!-- cSimpleModule -->
<g id="node5" class="node">
<title>cSimpleModule</title>
<polygon fill="none" stroke="black" points="122,-36 0,-36 0,0 122,0 122,-36"/>
<text text-anchor="middle" x="61" y="-14.3" font-family="Arial" font-size="14.00">cSimpleModule</text>
</g>
<!-- cModule&#45;&gt;cSimpleModule -->
<g id="edge4" class="edge">
<title>cModule&#45;&gt;cSimpleModule</title>
<path fill="none" stroke="black" d="M89.66,-64.21C83.71,-54.83 77.14,-44.46 71.79,-36.03"/>
<polygon fill="black" stroke="black" points="86.8,-66.24 95.11,-72.81 92.71,-62.49 86.8,-66.24"/>
</g>
<!-- cIdealChannel -->
<g id="node6" class="node">
<title>cIdealChannel</title>
<polygon fill="none" stroke="black" points="255.5,-36 140.5,-36 140.5,0 255.5,0 255.5,-36"/>
<text text-anchor="middle" x="198" y="-14.3" font-family="Arial" font-size="14.00">cIdealChannel</text>
</g>
<!-- cChannel&#45;&gt;cIdealChannel -->
<g id="edge5" class="edge">
<title>cChannel&#45;&gt;cIdealChannel</title>
<path fill="none" stroke="black" d="M259.56,-66.51C246.66,-56.55 231.9,-45.16 220.07,-36.03"/>
<polygon fill="black" stroke="black" points="257.67,-69.47 267.73,-72.81 261.95,-63.93 257.67,-69.47"/>
</g>
<!-- cDelayChannel -->
<g id="node7" class="node">
<title>cDelayChannel</title>
<polygon fill="none" stroke="black" points="394,-36 274,-36 274,0 394,0 394,-36"/>
<text text-anchor="middle" x="334" y="-14.3" font-family="Arial" font-size="14.00">cDelayChannel</text>
</g>
<!-- cChannel&#45;&gt;cDelayChannel -->
<g id="edge6" class="edge">
<title>cChannel&#45;&gt;cDelayChannel</title>
<path fill="none" stroke="black" d="M305.98,-64.21C311.8,-54.83 318.22,-44.46 323.45,-36.03"/>
<polygon fill="black" stroke="black" points="302.94,-62.47 300.65,-72.81 308.89,-66.16 302.94,-62.47"/>
</g>
<!-- cDatarateChannel -->
<g id="node8" class="node">
<title>cDatarateChannel</title>
<polygon fill="none" stroke="black" points="553.5,-36 412.5,-36 412.5,0 553.5,0 553.5,-36"/>
<text text-anchor="middle" x="483" y="-14.3" font-family="Arial" font-size="14.00">cDatarateChannel</text>
</g>
<!-- cChannel&#45;&gt;cDatarateChannel -->
<g id="edge7" class="edge">
<title>cChannel&#45;&gt;cDatarateChannel</title>
<path fill="none" stroke="black" d="M340.32,-71.49C370.13,-60.52 407.63,-46.73 436.71,-36.03"/>
<polygon fill="black" stroke="black" points="339.11,-68.21 330.93,-74.94 341.52,-74.77 339.11,-68.21"/>
</g>
</g>
</svg>
