<?xml version="1.0" encoding="UTF-8" standalone="no"?>
<!DOCTYPE svg PUBLIC "-//W3C//DTD SVG 1.1//EN"
 "http://www.w3.org/Graphics/SVG/1.1/DTD/svg11.dtd">
<!-- Generated by graphviz version 2.43.0 (0)
 -->
<!-- Title: g Pages: 1 -->
<svg width="562pt" height="251pt"
 viewBox="0.00 0.00 562.00 251.15" xmlns="http://www.w3.org/2000/svg" xmlns:xlink="http://www.w3.org/1999/xlink">
<g id="graph0" class="graph" transform="scale(1.3 1.3) rotate(0) translate(4 322)">
<title>g</title>
<polygon fill="white" stroke="transparent" points="-4,4 -4,-322 725.5,-322 725.5,4 -4,4"/>
<!-- cFigure -->
<g id="node1" class="node">
<title>cFigure</title>
<polygon fill="none" stroke="black" points="142,-318 94,-318 94,-295 142,-295 142,-318"/>
<text text-anchor="middle" x="118" y="-304" font-family="Arial" font-size="10.00">cFigure</text>
</g>
<!-- cAbstractLineFigure -->
<g id="node2" class="node">
<title>cAbstractLineFigure</title>
<polygon fill="none" stroke="black" points="172.5,-259 63.5,-259 63.5,-236 172.5,-236 172.5,-259"/>
<text text-anchor="middle" x="118" y="-245" font-family="Arial" font-size="10.00">cAbstractLineFigure</text>
</g>
<!-- cFigure&#45;&gt;cAbstractLineFigure -->
<g id="edge1" class="edge">
<title>cFigure&#45;&gt;cAbstractLineFigure</title>
<path fill="none" stroke="black" d="M118,-284.63C118,-275.99 118,-266.33 118,-259.17"/>
<polygon fill="black" stroke="black" points="114.5,-284.78 118,-294.78 121.5,-284.78 114.5,-284.78"/>
</g>
<!-- cLineFigure -->
<g id="node3" class="node">
<title>cLineFigure</title>
<polygon fill="none" stroke="black" points="68,-200 0,-200 0,-177 68,-177 68,-200"/>
<text text-anchor="middle" x="34" y="-186" font-family="Arial" font-size="10.00">cLineFigure</text>
</g>
<!-- cAbstractLineFigure&#45;&gt;cLineFigure -->
<g id="edge2" class="edge">
<title>cAbstractLineFigure&#45;&gt;cLineFigure</title>
<path fill="none" stroke="black" d="M93.87,-230.13C79.68,-220.5 62.15,-208.6 49.73,-200.17"/>
<polygon fill="black" stroke="black" points="91.96,-233.06 102.2,-235.78 95.89,-227.27 91.96,-233.06"/>
</g>
<!-- cArcFigure -->
<g id="node4" class="node">
<title>cArcFigure</title>
<polygon fill="none" stroke="black" points="150,-200 86,-200 86,-177 150,-177 150,-200"/>
<text text-anchor="middle" x="118" y="-186" font-family="Arial" font-size="10.00">cArcFigure</text>
</g>
<!-- cAbstractLineFigure&#45;&gt;cArcFigure -->
<g id="edge3" class="edge">
<title>cAbstractLineFigure&#45;&gt;cArcFigure</title>
<path fill="none" stroke="black" d="M118,-225.63C118,-216.99 118,-207.33 118,-200.17"/>
<polygon fill="black" stroke="black" points="114.5,-225.78 118,-235.78 121.5,-225.78 114.5,-225.78"/>
</g>
<!-- cPolylineFigure -->
<g id="node5" class="node">
<title>cPolylineFigure</title>
<polygon fill="none" stroke="black" points="255.5,-200 168.5,-200 168.5,-177 255.5,-177 255.5,-200"/>
<text text-anchor="middle" x="212" y="-186" font-family="Arial" font-size="10.00">cPolylineFigure</text>
</g>
<!-- cAbstractLineFigure&#45;&gt;cPolylineFigure -->
<g id="edge4" class="edge">
<title>cAbstractLineFigure&#45;&gt;cPolylineFigure</title>
<path fill="none" stroke="black" d="M144.55,-230.4C160.51,-220.72 180.37,-208.68 194.4,-200.17"/>
<polygon fill="black" stroke="black" points="142.42,-227.6 135.68,-235.78 146.05,-233.59 142.42,-227.6"/>
</g>
<!-- cFigure2 -->
<g id="node6" class="node">
<title>cFigure2</title>
<polygon fill="none" stroke="black" points="580,-318 532,-318 532,-295 580,-295 580,-318"/>
<text text-anchor="middle" x="556" y="-304" font-family="Arial" font-size="10.00">cFigure</text>
</g>
<!-- cAbstractTextFigure -->
<g id="node7" class="node">
<title>cAbstractTextFigure</title>
<polygon fill="none" stroke="black" points="451.5,-259 342.5,-259 342.5,-236 451.5,-236 451.5,-259"/>
<text text-anchor="middle" x="397" y="-245" font-family="Arial" font-size="10.00">cAbstractTextFigure</text>
</g>
<!-- cFigure2&#45;&gt;cAbstractTextFigure -->
<g id="edge5" class="edge">
<title>cFigure2&#45;&gt;cAbstractTextFigure</title>
<path fill="none" stroke="black" d="M522.34,-293.43C493.94,-283.25 453.69,-268.82 426.53,-259.09"/>
<polygon fill="black" stroke="black" points="521.26,-296.76 531.85,-296.84 523.62,-290.17 521.26,-296.76"/>
</g>
<!-- cAbstractImageFigure -->
<g id="node10" class="node">
<title>cAbstractImageFigure</title>
<polygon fill="none" stroke="black" points="615.5,-259 496.5,-259 496.5,-236 615.5,-236 615.5,-259"/>
<text text-anchor="middle" x="556" y="-245" font-family="Arial" font-size="10.00">cAbstractImageFigure</text>
</g>
<!-- cFigure2&#45;&gt;cAbstractImageFigure -->
<g id="edge8" class="edge">
<title>cFigure2&#45;&gt;cAbstractImageFigure</title>
<path fill="none" stroke="black" d="M556,-284.63C556,-275.99 556,-266.33 556,-259.17"/>
<polygon fill="black" stroke="black" points="552.5,-284.78 556,-294.78 559.5,-284.78 552.5,-284.78"/>
</g>
<!-- cGroupFigure -->
<g id="node14" class="node">
<title>cGroupFigure</title>
<polygon fill="none" stroke="black" points="710.5,-259 633.5,-259 633.5,-236 710.5,-236 710.5,-259"/>
<text text-anchor="middle" x="672" y="-245" font-family="Arial" font-size="10.00">cGroupFigure</text>
</g>
<!-- cFigure2&#45;&gt;cGroupFigure -->
<g id="edge12" class="edge">
<title>cFigure2&#45;&gt;cGroupFigure</title>
<path fill="none" stroke="black" d="M586.63,-290.45C606.77,-280.55 632.62,-267.85 650.57,-259.03"/>
<polygon fill="black" stroke="black" points="584.98,-287.36 577.55,-294.91 588.07,-293.64 584.98,-287.36"/>
</g>
<!-- cTextFigure -->
<g id="node8" class="node">
<title>cTextFigure</title>
<polygon fill="none" stroke="black" points="342,-200 274,-200 274,-177 342,-177 342,-200"/>
<text text-anchor="middle" x="308" y="-186" font-family="Arial" font-size="10.00">cTextFigure</text>
</g>
<!-- cAbstractTextFigure&#45;&gt;cTextFigure -->
<g id="edge6" class="edge">
<title>cAbstractTextFigure&#45;&gt;cTextFigure</title>
<path fill="none" stroke="black" d="M371.44,-230.13C356.4,-220.5 337.82,-208.6 324.67,-200.17"/>
<polygon fill="black" stroke="black" points="369.95,-233.33 380.26,-235.78 373.73,-227.44 369.95,-233.33"/>
</g>
<!-- cLabelFigure -->
<g id="node9" class="node">
<title>cLabelFigure</title>
<polygon fill="none" stroke="black" points="434,-200 360,-200 360,-177 434,-177 434,-200"/>
<text text-anchor="middle" x="397" y="-186" font-family="Arial" font-size="10.00">cLabelFigure</text>
</g>
<!-- cAbstractTextFigure&#45;&gt;cLabelFigure -->
<g id="edge7" class="edge">
<title>cAbstractTextFigure&#45;&gt;cLabelFigure</title>
<path fill="none" stroke="black" d="M397,-225.63C397,-216.99 397,-207.33 397,-200.17"/>
<polygon fill="black" stroke="black" points="393.5,-225.78 397,-235.78 400.5,-225.78 393.5,-225.78"/>
</g>
<!-- cFigure3 -->
<g id="node15" class="node">
<title>cFigure3</title>
<polygon fill="none" stroke="black" points="421,-141 373,-141 373,-118 421,-118 421,-141"/>
<text text-anchor="middle" x="397" y="-127" font-family="Arial" font-size="10.00">cFigure</text>
</g>
<!-- cLabelFigure&#45;&gt;cFigure3 -->
<!-- cImageFigure -->
<g id="node11" class="node">
<title>cImageFigure</title>
<polygon fill="none" stroke="black" points="531.5,-200 452.5,-200 452.5,-177 531.5,-177 531.5,-200"/>
<text text-anchor="middle" x="492" y="-186" font-family="Arial" font-size="10.00">cImageFigure</text>
</g>
<!-- cAbstractImageFigure&#45;&gt;cImageFigure -->
<g id="edge9" class="edge">
<title>cAbstractImageFigure&#45;&gt;cImageFigure</title>
<path fill="none" stroke="black" d="M536.38,-229.03C525.8,-219.61 513.09,-208.28 503.98,-200.17"/>
<polygon fill="black" stroke="black" points="534.17,-231.74 543.96,-235.78 538.82,-226.51 534.17,-231.74"/>
</g>
<!-- cIconFigure -->
<g id="node12" class="node">
<title>cIconFigure</title>
<polygon fill="none" stroke="black" points="618,-200 550,-200 550,-177 618,-177 618,-200"/>
<text text-anchor="middle" x="584" y="-186" font-family="Arial" font-size="10.00">cIconFigure</text>
</g>
<!-- cAbstractImageFigure&#45;&gt;cIconFigure -->
<g id="edge10" class="edge">
<title>cAbstractImageFigure&#45;&gt;cIconFigure</title>
<path fill="none" stroke="black" d="M565.69,-226.78C570.07,-217.85 575.09,-207.65 578.76,-200.17"/>
<polygon fill="black" stroke="black" points="562.53,-225.26 561.27,-235.78 568.82,-228.35 562.53,-225.26"/>
</g>
<!-- cPixmapFigure -->
<g id="node13" class="node">
<title>cPixmapFigure</title>
<polygon fill="none" stroke="black" points="721.5,-200 636.5,-200 636.5,-177 721.5,-177 721.5,-200"/>
<text text-anchor="middle" x="679" y="-186" font-family="Arial" font-size="10.00">cPixmapFigure</text>
</g>
<!-- cAbstractImageFigure&#45;&gt;cPixmapFigure -->
<g id="edge11" class="edge">
<title>cAbstractImageFigure&#45;&gt;cPixmapFigure</title>
<path fill="none" stroke="black" d="M588.19,-231.58C609.58,-221.67 637.15,-208.89 656.28,-200.03"/>
<polygon fill="black" stroke="black" points="586.45,-228.53 578.85,-235.91 589.39,-234.88 586.45,-228.53"/>
</g>
<!-- cAbstractShapeFigure -->
<g id="node16" class="node">
<title>cAbstractShapeFigure</title>
<polygon fill="none" stroke="black" points="456,-82 338,-82 338,-59 456,-59 456,-82"/>
<text text-anchor="middle" x="397" y="-68" font-family="Arial" font-size="10.00">cAbstractShapeFigure</text>
</g>
<!-- cFigure3&#45;&gt;cAbstractShapeFigure -->
<g id="edge13" class="edge">
<title>cFigure3&#45;&gt;cAbstractShapeFigure</title>
<path fill="none" stroke="black" d="M397,-107.63C397,-98.99 397,-89.33 397,-82.17"/>
<polygon fill="black" stroke="black" points="393.5,-107.78 397,-117.78 400.5,-107.78 393.5,-107.78"/>
</g>
<!-- cRectangleFigure -->
<g id="node17" class="node">
<title>cRectangleFigure</title>
<polygon fill="none" stroke="black" points="207.5,-23 110.5,-23 110.5,0 207.5,0 207.5,-23"/>
<text text-anchor="middle" x="159" y="-9" font-family="Arial" font-size="10.00">cRectangleFigure</text>
</g>
<!-- cAbstractShapeFigure&#45;&gt;cRectangleFigure -->
<g id="edge14" class="edge">
<title>cAbstractShapeFigure&#45;&gt;cRectangleFigure</title>
<path fill="none" stroke="black" d="M343.22,-56.62C300.9,-46.48 242.66,-32.54 203.08,-23.06"/>
<polygon fill="black" stroke="black" points="342.53,-60.05 353.07,-58.98 344.16,-53.25 342.53,-60.05"/>
</g>
<!-- cOvalFigure -->
<g id="node18" class="node">
<title>cOvalFigure</title>
<polygon fill="none" stroke="black" points="296,-23 226,-23 226,0 296,0 296,-23"/>
<text text-anchor="middle" x="261" y="-9" font-family="Arial" font-size="10.00">cOvalFigure</text>
</g>
<!-- cAbstractShapeFigure&#45;&gt;cOvalFigure -->
<g id="edge15" class="edge">
<title>cAbstractShapeFigure&#45;&gt;cOvalFigure</title>
<path fill="none" stroke="black" d="M362.36,-54.98C338.58,-45.01 307.56,-32.01 286.13,-23.03"/>
<polygon fill="black" stroke="black" points="361.16,-58.27 371.74,-58.91 363.87,-51.82 361.16,-58.27"/>
</g>
<!-- cRingFigure -->
<g id="node19" class="node">
<title>cRingFigure</title>
<polygon fill="none" stroke="black" points="384,-23 314,-23 314,0 384,0 384,-23"/>
<text text-anchor="middle" x="349" y="-9" font-family="Arial" font-size="10.00">cRingFigure</text>
</g>
<!-- cAbstractShapeFigure&#45;&gt;cRingFigure -->
<g id="edge16" class="edge">
<title>cAbstractShapeFigure&#45;&gt;cRingFigure</title>
<path fill="none" stroke="black" d="M381.35,-50.91C373.61,-41.72 364.55,-30.96 357.99,-23.17"/>
<polygon fill="black" stroke="black" points="378.85,-53.38 387.97,-58.78 384.21,-48.88 378.85,-53.38"/>
</g>
<!-- cPieSliceFigure -->
<g id="node20" class="node">
<title>cPieSliceFigure</title>
<polygon fill="none" stroke="black" points="488,-23 402,-23 402,0 488,0 488,-23"/>
<text text-anchor="middle" x="445" y="-9" font-family="Arial" font-size="10.00">cPieSliceFigure</text>
</g>
<!-- cAbstractShapeFigure&#45;&gt;cPieSliceFigure -->
<g id="edge17" class="edge">
<title>cAbstractShapeFigure&#45;&gt;cPieSliceFigure</title>
<path fill="none" stroke="black" d="M412.65,-50.91C420.39,-41.72 429.45,-30.96 436.01,-23.17"/>
<polygon fill="black" stroke="black" points="409.79,-48.88 406.03,-58.78 415.15,-53.38 409.79,-48.88"/>
</g>
<!-- cPolygonFigure -->
<g id="node21" class="node">
<title>cPolygonFigure</title>
<polygon fill="none" stroke="black" points="593.5,-23 506.5,-23 506.5,0 593.5,0 593.5,-23"/>
<text text-anchor="middle" x="550" y="-9" font-family="Arial" font-size="10.00">cPolygonFigure</text>
</g>
<!-- cAbstractShapeFigure&#45;&gt;cPolygonFigure -->
<g id="edge18" class="edge">
<title>cAbstractShapeFigure&#45;&gt;cPolygonFigure</title>
<path fill="none" stroke="black" d="M434.9,-55.38C461.79,-45.36 497.3,-32.13 521.73,-23.03"/>
<polygon fill="black" stroke="black" points="433.57,-52.14 425.42,-58.91 436.01,-58.7 433.57,-52.14"/>
</g>
<!-- cPathFigure -->
<g id="node22" class="node">
<title>cPathFigure</title>
<polygon fill="none" stroke="black" points="680.5,-23 611.5,-23 611.5,0 680.5,0 680.5,-23"/>
<text text-anchor="middle" x="646" y="-9" font-family="Arial" font-size="10.00">cPathFigure</text>
</g>
<!-- cAbstractShapeFigure&#45;&gt;cPathFigure -->
<g id="edge19" class="edge">
<title>cAbstractShapeFigure&#45;&gt;cPathFigure</title>
<path fill="none" stroke="black" d="M454.81,-56.73C496.14,-47.54 553.05,-34.74 603,-23 605.69,-22.37 608.48,-21.7 611.28,-21.03"/>
<polygon fill="black" stroke="black" points="453.93,-53.35 444.92,-58.93 455.44,-60.18 453.93,-53.35"/>
</g>
</g>
</svg>
