<?xml version="1.0" encoding="UTF-8" standalone="no"?>
<!DOCTYPE svg PUBLIC "-//W3C//DTD SVG 1.1//EN"
 "http://www.w3.org/Graphics/SVG/1.1/DTD/svg11.dtd">
<!-- Generated by graphviz version 2.43.0 (0)
 -->
<!-- Title: g Pages: 1 -->
<svg width="562pt" height="302pt"
 viewBox="0.00 0.00 562.00 302.10" xmlns="http://www.w3.org/2000/svg" xmlns:xlink="http://www.w3.org/1999/xlink">
<g id="graph0" class="graph" transform="scale(1.41 1.41) rotate(0) translate(4 422)">
<title>g</title>
<polygon fill="white" stroke="transparent" points="-4,4 -4,-422 788.5,-422 788.5,4 -4,4"/>
<!-- cIListener -->
<g id="node1" class="node">
<title>cIListener</title>
<polygon fill="none" stroke="black" points="442.5,-418 358.5,-418 358.5,-382 442.5,-382 442.5,-418"/>
<text text-anchor="middle" x="400.5" y="-396.3" font-family="Arial" font-size="14.00">cIListener</text>
</g>
<!-- cResultListener -->
<g id="node2" class="node">
<title>cResultListener</title>
<polygon fill="none" stroke="black" points="461.5,-346 339.5,-346 339.5,-310 461.5,-310 461.5,-346"/>
<text text-anchor="middle" x="400.5" y="-324.3" font-family="Arial" font-size="14.00">cResultListener</text>
</g>
<!-- cIListener&#45;&gt;cResultListener -->
<g id="edge1" class="edge">
<title>cIListener&#45;&gt;cResultListener</title>
<path fill="none" stroke="black" d="M400.5,-371.67C400.5,-363.05 400.5,-353.79 400.5,-346.1"/>
<polygon fill="black" stroke="black" points="397,-371.7 400.5,-381.7 404,-371.7 397,-371.7"/>
</g>
<!-- cResultFilter -->
<g id="node3" class="node">
<title>cResultFilter</title>
<polygon fill="none" stroke="black" points="371,-274 270,-274 270,-238 371,-238 371,-274"/>
<text text-anchor="middle" x="320.5" y="-252.3" font-family="Arial" font-size="14.00">cResultFilter</text>
</g>
<!-- cResultListener&#45;&gt;cResultFilter -->
<g id="edge2" class="edge">
<title>cResultListener&#45;&gt;cResultFilter</title>
<path fill="none" stroke="black" d="M373.11,-303.03C362.24,-293.52 349.99,-282.8 340.05,-274.1"/>
<polygon fill="black" stroke="black" points="370.89,-305.75 380.72,-309.7 375.5,-300.48 370.89,-305.75"/>
</g>
<!-- cResultRecorder -->
<g id="node4" class="node">
<title>cResultRecorder</title>
<polygon fill="none" stroke="black" points="613.5,-274 485.5,-274 485.5,-238 613.5,-238 613.5,-274"/>
<text text-anchor="middle" x="549.5" y="-252.3" font-family="Arial" font-size="14.00">cResultRecorder</text>
</g>
<!-- cResultListener&#45;&gt;cResultRecorder -->
<g id="edge3" class="edge">
<title>cResultListener&#45;&gt;cResultRecorder</title>
<path fill="none" stroke="black" d="M446.22,-305.52C467.72,-295.42 493,-283.54 513.17,-274.07"/>
<polygon fill="black" stroke="black" points="444.51,-302.46 436.95,-309.88 447.49,-308.79 444.51,-302.46"/>
</g>
<!-- cNumericResultFilter -->
<g id="node5" class="node">
<title>cNumericResultFilter</title>
<polygon fill="none" stroke="black" points="159,-201 0,-201 0,-165 159,-165 159,-201"/>
<text text-anchor="middle" x="79.5" y="-179.3" font-family="Arial" font-size="14.00">cNumericResultFilter</text>
</g>
<!-- cResultFilter&#45;&gt;cNumericResultFilter -->
<g id="edge4" class="edge">
<title>cResultFilter&#45;&gt;cNumericResultFilter</title>
<path fill="none" stroke="black" d="M260.19,-237.23C222.67,-226.18 174.67,-212.04 137.58,-201.11"/>
<polygon fill="black" stroke="black" points="259.4,-240.65 269.98,-240.12 261.38,-233.93 259.4,-240.65"/>
</g>
<!-- cObjectResultFilter -->
<g id="node6" class="node">
<title>cObjectResultFilter</title>
<polygon fill="none" stroke="black" points="323.5,-201 177.5,-201 177.5,-165 323.5,-165 323.5,-201"/>
<text text-anchor="middle" x="250.5" y="-179.3" font-family="Arial" font-size="14.00">cObjectResultFilter</text>
</g>
<!-- cResultFilter&#45;&gt;cObjectResultFilter -->
<g id="edge5" class="edge">
<title>cResultFilter&#45;&gt;cObjectResultFilter</title>
<path fill="none" stroke="black" d="M296.5,-230.65C286.88,-220.9 276.03,-209.9 267.29,-201.03"/>
<polygon fill="black" stroke="black" points="294.04,-233.15 303.55,-237.81 299.03,-228.23 294.04,-233.15"/>
</g>
<!-- CountFilter,\n... -->
<g id="node8" class="node">
<title>CountFilter,\n...</title>
<polygon fill="none" stroke="black" points="437.5,-202 341.5,-202 341.5,-164 437.5,-164 437.5,-202"/>
<text text-anchor="middle" x="389.5" y="-186.8" font-family="Arial" font-size="14.00">CountFilter,</text>
<text text-anchor="middle" x="389.5" y="-171.8" font-family="Arial" font-size="14.00">...</text>
</g>
<!-- cResultFilter&#45;&gt;CountFilter,\n... -->
<g id="edge7" class="edge">
<title>cResultFilter&#45;&gt;CountFilter,\n...</title>
<path fill="none" stroke="black" d="M344.22,-230.6C353.33,-221.22 363.56,-210.69 371.99,-202.02"/>
<polygon fill="black" stroke="black" points="341.66,-228.2 337.2,-237.81 346.68,-233.08 341.66,-228.2"/>
</g>
<!-- cNumericResultRecorder -->
<g id="node7" class="node">
<title>cNumericResultRecorder</title>
<polygon fill="none" stroke="black" points="643,-201 456,-201 456,-165 643,-165 643,-201"/>
<text text-anchor="middle" x="549.5" y="-179.3" font-family="Arial" font-size="14.00">cNumericResultRecorder</text>
</g>
<!-- cResultRecorder&#45;&gt;cNumericResultRecorder -->
<g id="edge6" class="edge">
<title>cResultRecorder&#45;&gt;cNumericResultRecorder</title>
<path fill="none" stroke="black" d="M549.5,-227.75C549.5,-218.77 549.5,-209.03 549.5,-201.03"/>
<polygon fill="black" stroke="black" points="546,-227.81 549.5,-237.81 553,-227.81 546,-227.81"/>
</g>
<!-- CountRecorder,\n... -->
<g id="node11" class="node">
<title>CountRecorder,\n...</title>
<polygon fill="none" stroke="black" points="784.5,-202 660.5,-202 660.5,-164 784.5,-164 784.5,-202"/>
<text text-anchor="middle" x="722.5" y="-186.8" font-family="Arial" font-size="14.00">CountRecorder,</text>
<text text-anchor="middle" x="722.5" y="-171.8" font-family="Arial" font-size="14.00">...</text>
</g>
<!-- cResultRecorder&#45;&gt;CountRecorder,\n... -->
<g id="edge10" class="edge">
<title>cResultRecorder&#45;&gt;CountRecorder,\n...</title>
<path fill="none" stroke="black" d="M600.51,-234.06C625.23,-223.92 654.63,-211.85 678.38,-202.11"/>
<polygon fill="black" stroke="black" points="598.86,-230.96 590.94,-237.99 601.52,-237.43 598.86,-230.96"/>
</g>
<!-- SumFilter,\nMinFilter,\nMaxFilter,\nTimeAverageFilter,\n... -->
<g id="node9" class="node">
<title>SumFilter,\nMinFilter,\nMaxFilter,\nTimeAverageFilter,\n...</title>
<polygon fill="none" stroke="black" points="152.5,-105.5 6.5,-105.5 6.5,-22.5 152.5,-22.5 152.5,-105.5"/>
<text text-anchor="middle" x="79.5" y="-90.3" font-family="Arial" font-size="14.00">SumFilter,</text>
<text text-anchor="middle" x="79.5" y="-75.3" font-family="Arial" font-size="14.00">MinFilter,</text>
<text text-anchor="middle" x="79.5" y="-60.3" font-family="Arial" font-size="14.00">MaxFilter,</text>
<text text-anchor="middle" x="79.5" y="-45.3" font-family="Arial" font-size="14.00">TimeAverageFilter,</text>
<text text-anchor="middle" x="79.5" y="-30.3" font-family="Arial" font-size="14.00">...</text>
</g>
<!-- cNumericResultFilter&#45;&gt;SumFilter,\nMinFilter,\nMaxFilter,\nTimeAverageFilter,\n... -->
<g id="edge8" class="edge">
<title>cNumericResultFilter&#45;&gt;SumFilter,\nMinFilter,\nMaxFilter,\nTimeAverageFilter,\n...</title>
<path fill="none" stroke="black" d="M79.5,-154.67C79.5,-140.13 79.5,-121.97 79.5,-105.8"/>
<polygon fill="black" stroke="black" points="76,-154.99 79.5,-164.99 83,-154.99 76,-154.99"/>
</g>
<!-- PacketBitsFilter,\nPacketBytesFilter,\n... -->
<g id="node10" class="node">
<title>PacketBitsFilter,\nPacketBytesFilter,\n...</title>
<polygon fill="none" stroke="black" points="319.5,-90.5 181.5,-90.5 181.5,-37.5 319.5,-37.5 319.5,-90.5"/>
<text text-anchor="middle" x="250.5" y="-75.3" font-family="Arial" font-size="14.00">PacketBitsFilter,</text>
<text text-anchor="middle" x="250.5" y="-60.3" font-family="Arial" font-size="14.00">PacketBytesFilter,</text>
<text text-anchor="middle" x="250.5" y="-45.3" font-family="Arial" font-size="14.00">...</text>
</g>
<!-- cObjectResultFilter&#45;&gt;PacketBitsFilter,\nPacketBytesFilter,\n... -->
<g id="edge9" class="edge">
<title>cObjectResultFilter&#45;&gt;PacketBitsFilter,\nPacketBytesFilter,\n...</title>
<path fill="none" stroke="black" d="M250.5,-154.72C250.5,-135.39 250.5,-109.63 250.5,-90.67"/>
<polygon fill="black" stroke="black" points="247,-154.99 250.5,-164.99 254,-154.99 247,-154.99"/>
</g>
<!-- VectorRecorder,\nLastValueRecorder,\nHistogramRecorder,\nSumRecorder,\nMinRecorder,\nMaxRecorder,\nTimeAverageRecorder,\n... -->
<g id="node12" class="node">
<title>VectorRecorder,\nLastValueRecorder,\nHistogramRecorder,\nSumRecorder,\nMinRecorder,\nMaxRecorder,\nTimeAverageRecorder,\n...</title>
<polygon fill="none" stroke="black" points="636,-128 463,-128 463,0 636,0 636,-128"/>
<text text-anchor="middle" x="549.5" y="-112.8" font-family="Arial" font-size="14.00">VectorRecorder,</text>
<text text-anchor="middle" x="549.5" y="-97.8" font-family="Arial" font-size="14.00">LastValueRecorder,</text>
<text text-anchor="middle" x="549.5" y="-82.8" font-family="Arial" font-size="14.00">HistogramRecorder,</text>
<text text-anchor="middle" x="549.5" y="-67.8" font-family="Arial" font-size="14.00">SumRecorder,</text>
<text text-anchor="middle" x="549.5" y="-52.8" font-family="Arial" font-size="14.00">MinRecorder,</text>
<text text-anchor="middle" x="549.5" y="-37.8" font-family="Arial" font-size="14.00">MaxRecorder,</text>
<text text-anchor="middle" x="549.5" y="-22.8" font-family="Arial" font-size="14.00">TimeAverageRecorder,</text>
<text text-anchor="middle" x="549.5" y="-7.8" font-family="Arial" font-size="14.00">...</text>
</g>
<!-- cNumericResultRecorder&#45;&gt;VectorRecorder,\nLastValueRecorder,\nHistogramRecorder,\nSumRecorder,\nMinRecorder,\nMaxRecorder,\nTimeAverageRecorder,\n... -->
<g id="edge11" class="edge">
<title>cNumericResultRecorder&#45;&gt;VectorRecorder,\nLastValueRecorder,\nHistogramRecorder,\nSumRecorder,\nMinRecorder,\nMaxRecorder,\nTimeAverageRecorder,\n...</title>
<path fill="none" stroke="black" d="M549.5,-154.78C549.5,-146.72 549.5,-137.54 549.5,-128.2"/>
<polygon fill="black" stroke="black" points="546,-154.99 549.5,-164.99 553,-154.99 546,-154.99"/>
</g>
</g>
</svg>
