<?xml version="1.0" encoding="UTF-8" standalone="no"?>
<!DOCTYPE svg PUBLIC "-//W3C//DTD SVG 1.1//EN"
 "http://www.w3.org/Graphics/SVG/1.1/DTD/svg11.dtd">
<!-- Generated by graphviz version 2.43.0 (0)
 -->
<!-- Title: g Pages: 1 -->
<svg width="360pt" height="113pt"
 viewBox="0.00 0.00 360.00 112.71" xmlns="http://www.w3.org/2000/svg" xmlns:xlink="http://www.w3.org/1999/xlink">
<g id="graph0" class="graph" transform="scale(1.61 1.61) rotate(0) translate(4 178)">
<title>g</title>
<polygon fill="white" stroke="transparent" points="-4,4 -4,-178 577.34,-178 577.34,4 -4,4"/>
<!-- pkdrop -->
<g id="node1" class="node">
<title>pkdrop</title>
<polygon fill="none" stroke="black" points="72,-112 0,-112 0,-62 72,-62 72,-112"/>
<text text-anchor="middle" x="36" y="-83.3" font-family="Arial" font-size="14.00">pkdrop</text>
</g>
<!-- packetBytes -->
<g id="node2" class="node">
<title>packetBytes</title>
<ellipse fill="none" stroke="black" cx="161.29" cy="-87" rx="53.09" ry="53.09"/>
<text text-anchor="middle" x="161.29" y="-83.3" font-family="Arial" font-size="14.00">packetBytes</text>
</g>
<!-- pkdrop&#45;&gt;packetBytes -->
<g id="edge1" class="edge">
<title>pkdrop&#45;&gt;packetBytes</title>
<path fill="none" stroke="black" d="M72,-87C79.98,-87 88.7,-87 97.46,-87"/>
<polygon fill="black" stroke="black" points="97.7,-90.5 107.7,-87 97.7,-83.5 97.7,-90.5"/>
</g>
<!-- expr1 -->
<g id="node3" class="node">
<title>expr1</title>
<ellipse fill="none" stroke="black" cx="295.96" cy="-87" rx="45.26" ry="45.26"/>
<text text-anchor="middle" x="295.96" y="-83.3" font-family="Arial" font-size="14.00">f(x) = x*8</text>
</g>
<!-- packetBytes&#45;&gt;expr1 -->
<g id="edge2" class="edge">
<title>packetBytes&#45;&gt;expr1</title>
<path fill="none" stroke="black" d="M214.73,-87C223.07,-87 231.72,-87 240.11,-87"/>
<polygon fill="black" stroke="black" points="240.19,-90.5 250.19,-87 240.19,-83.5 240.19,-90.5"/>
</g>
<!-- sum -->
<g id="node4" class="node">
<title>sum</title>
<ellipse fill="none" stroke="black" cx="417.34" cy="-134" rx="36" ry="36"/>
<text text-anchor="middle" x="417.34" y="-130.3" font-family="Arial" font-size="14.00">sum</text>
</g>
<!-- expr1&#45;&gt;sum -->
<g id="edge4" class="edge">
<title>expr1&#45;&gt;sum</title>
<path fill="none" stroke="black" d="M338.38,-103.31C349.95,-107.86 362.54,-112.82 374.16,-117.39"/>
<polygon fill="black" stroke="black" points="373.06,-120.72 383.65,-121.13 375.63,-114.21 373.06,-120.72"/>
</g>
<!-- sumrec -->
<g id="node5" class="node">
<title>sumrec</title>
<ellipse fill="none" stroke="black" cx="417.34" cy="-40" rx="36" ry="36"/>
<ellipse fill="none" stroke="black" cx="417.34" cy="-40" rx="40" ry="40"/>
<text text-anchor="middle" x="417.34" y="-36.3" font-family="Arial" font-size="14.00">sum</text>
</g>
<!-- expr1&#45;&gt;sumrec -->
<g id="edge3" class="edge">
<title>expr1&#45;&gt;sumrec</title>
<path fill="none" stroke="black" d="M338.38,-70.69C348.69,-66.63 359.81,-62.26 370.33,-58.12"/>
<polygon fill="black" stroke="black" points="371.75,-61.32 379.78,-54.39 369.19,-54.8 371.75,-61.32"/>
</g>
<!-- vector -->
<g id="node6" class="node">
<title>vector</title>
<ellipse fill="none" stroke="black" cx="533.34" cy="-134" rx="36" ry="36"/>
<ellipse fill="none" stroke="black" cx="533.34" cy="-134" rx="40" ry="40"/>
<text text-anchor="middle" x="533.34" y="-130.3" font-family="Arial" font-size="14.00">vector</text>
</g>
<!-- sum&#45;&gt;vector -->
<g id="edge5" class="edge">
<title>sum&#45;&gt;vector</title>
<path fill="none" stroke="black" d="M453.47,-134C462.8,-134 473.04,-134 482.97,-134"/>
<polygon fill="black" stroke="black" points="483.15,-137.5 493.15,-134 483.15,-130.5 483.15,-137.5"/>
</g>
</g>
</svg>
