<?xml version="1.0" encoding="UTF-8" standalone="no"?>
<!DOCTYPE svg PUBLIC "-//W3C//DTD SVG 1.1//EN"
 "http://www.w3.org/Graphics/SVG/1.1/DTD/svg11.dtd">
<!-- Generated by graphviz version 2.43.0 (0)
 -->
<!-- Title: g Pages: 1 -->
<svg width="468pt" height="80pt"
 viewBox="0.00 0.00 468.00 80.31" xmlns="http://www.w3.org/2000/svg" xmlns:xlink="http://www.w3.org/1999/xlink">
<g id="graph0" class="graph" transform="scale(1.44 1.44) rotate(0) translate(4 112)">
<title>g</title>
<polygon fill="white" stroke="transparent" points="-4,4 -4,-112 672,-112 672,4 -4,4"/>
<!-- cRandom -->
<g id="node1" class="node">
<title>cRandom</title>
<polygon fill="none" stroke="black" points="411,-108 329,-108 329,-72 411,-72 411,-108"/>
<text text-anchor="middle" x="370" y="-86.3" font-family="Arial" font-size="14.00">cRandom</text>
</g>
<!-- cUniform -->
<g id="node2" class="node">
<title>cUniform</title>
<polygon fill="none" stroke="black" points="80,-36 0,-36 0,0 80,0 80,-36"/>
<text text-anchor="middle" x="40" y="-14.3" font-family="Arial" font-size="14.00">cUniform</text>
</g>
<!-- cRandom&#45;&gt;cUniform -->
<g id="edge1" class="edge">
<title>cRandom&#45;&gt;cUniform</title>
<path fill="none" stroke="black" d="M318.47,-81.62C261.72,-72.95 168.04,-57.04 89,-36 86.13,-35.24 83.18,-34.39 80.23,-33.49"/>
<polygon fill="black" stroke="black" points="318.21,-85.12 328.62,-83.15 319.26,-78.2 318.21,-85.12"/>
</g>
<!-- cExponential -->
<g id="node3" class="node">
<title>cExponential</title>
<polygon fill="none" stroke="black" points="204,-36 98,-36 98,0 204,0 204,-36"/>
<text text-anchor="middle" x="151" y="-14.3" font-family="Arial" font-size="14.00">cExponential</text>
</g>
<!-- cRandom&#45;&gt;cExponential -->
<g id="edge2" class="edge">
<title>cRandom&#45;&gt;cExponential</title>
<path fill="none" stroke="black" d="M318.93,-72.68C284.42,-61.64 238.96,-47.11 204.04,-35.95"/>
<polygon fill="black" stroke="black" points="318.22,-76.12 328.81,-75.83 320.35,-69.46 318.22,-76.12"/>
</g>
<!-- cNormal -->
<g id="node4" class="node">
<title>cNormal</title>
<polygon fill="none" stroke="black" points="296,-36 222,-36 222,0 296,0 296,-36"/>
<text text-anchor="middle" x="259" y="-14.3" font-family="Arial" font-size="14.00">cNormal</text>
</g>
<!-- cRandom&#45;&gt;cNormal -->
<g id="edge3" class="edge">
<title>cRandom&#45;&gt;cNormal</title>
<path fill="none" stroke="black" d="M334.02,-66.31C318.51,-56.53 300.65,-45.27 286.26,-36.19"/>
<polygon fill="black" stroke="black" points="332.52,-69.5 342.85,-71.88 336.25,-63.58 332.52,-69.5"/>
</g>
<!-- cTruncNormal -->
<g id="node5" class="node">
<title>cTruncNormal</title>
<polygon fill="none" stroke="black" points="426,-36 314,-36 314,0 426,0 426,-36"/>
<text text-anchor="middle" x="370" y="-14.3" font-family="Arial" font-size="14.00">cTruncNormal</text>
</g>
<!-- cRandom&#45;&gt;cTruncNormal -->
<g id="edge4" class="edge">
<title>cRandom&#45;&gt;cTruncNormal</title>
<path fill="none" stroke="black" d="M370,-61.67C370,-53.05 370,-43.79 370,-36.1"/>
<polygon fill="black" stroke="black" points="366.5,-61.7 370,-71.7 373.5,-61.7 366.5,-61.7"/>
</g>
<!-- cGamma -->
<g id="node6" class="node">
<title>cGamma</title>
<polygon fill="none" stroke="black" points="522,-36 444,-36 444,0 522,0 522,-36"/>
<text text-anchor="middle" x="483" y="-14.3" font-family="Arial" font-size="14.00">cGamma</text>
</g>
<!-- cRandom&#45;&gt;cGamma -->
<g id="edge5" class="edge">
<title>cRandom&#45;&gt;cGamma</title>
<path fill="none" stroke="black" d="M406.18,-66.59C422.08,-56.74 440.46,-45.35 455.25,-36.19"/>
<polygon fill="black" stroke="black" points="404.3,-63.63 397.64,-71.88 407.99,-69.59 404.3,-63.63"/>
</g>
<!-- cBeta -->
<g id="node7" class="node">
<title>cBeta</title>
<polygon fill="none" stroke="black" points="596,-36 540,-36 540,0 596,0 596,-36"/>
<text text-anchor="middle" x="568" y="-14.3" font-family="Arial" font-size="14.00">cBeta</text>
</g>
<!-- cRandom&#45;&gt;cBeta -->
<g id="edge6" class="edge">
<title>cRandom&#45;&gt;cBeta</title>
<path fill="none" stroke="black" d="M420.73,-73.91C452.69,-64.01 494.64,-50.29 531,-36 533.9,-34.86 536.89,-33.61 539.86,-32.33"/>
<polygon fill="black" stroke="black" points="419.68,-70.57 411.15,-76.86 421.73,-77.26 419.68,-70.57"/>
</g>
<!-- others -->
<g id="node8" class="node">
<title>others</title>
<polygon fill="none" stroke="black" points="668,-36 614,-36 614,0 668,0 668,-36"/>
<text text-anchor="middle" x="641" y="-14.3" font-family="Arial" font-size="14.00">...</text>
</g>
<!-- cRandom&#45;&gt;others -->
<g id="edge7" class="edge">
<title>cRandom&#45;&gt;others</title>
<path fill="none" stroke="black" d="M420.97,-80.84C469.18,-72.34 543.16,-57.29 605,-36 607.88,-35.01 610.83,-33.86 613.74,-32.63"/>
<polygon fill="black" stroke="black" points="420.34,-77.4 411.09,-82.55 421.54,-84.29 420.34,-77.4"/>
</g>
</g>
</svg>
