<?xml version="1.0" encoding="UTF-8" standalone="no"?>
<!DOCTYPE svg PUBLIC "-//W3C//DTD SVG 1.1//EN"
 "http://www.w3.org/Graphics/SVG/1.1/DTD/svg11.dtd">
<!-- Generated by graphviz version 2.43.0 (0)
 -->
<!-- Title: g Pages: 1 -->
<svg width="286pt" height="277pt"
 viewBox="0.00 0.00 286.00 277.00" xmlns="http://www.w3.org/2000/svg" xmlns:xlink="http://www.w3.org/1999/xlink">
<g id="graph0" class="graph" transform="scale(1 1) rotate(0) translate(4 273)">
<title>g</title>
<polygon fill="white" stroke="transparent" points="-4,4 -4,-273 282,-273 282,4 -4,4"/>
<!-- cStatistic -->
<g id="node1" class="node">
<title>cStatistic</title>
<polygon fill="none" stroke="black" points="195,-269 115,-269 115,-233 195,-233 195,-269"/>
<text text-anchor="middle" x="155" y="-247.3" font-family="Arial" font-size="14.00">cStatistic</text>
</g>
<!-- cStdDev -->
<g id="node2" class="node">
<title>cStdDev</title>
<polygon fill="none" stroke="black" points="192,-196 118,-196 118,-160 192,-160 192,-196"/>
<text text-anchor="middle" x="155" y="-174.3" font-family="Arial" font-size="14.00">cStdDev</text>
</g>
<!-- cStatistic&#45;&gt;cStdDev -->
<g id="edge1" class="edge">
<title>cStatistic&#45;&gt;cStdDev</title>
<path fill="none" stroke="black" d="M155,-222.75C155,-213.77 155,-204.03 155,-196.03"/>
<polygon fill="black" stroke="black" points="151.5,-222.81 155,-232.81 158.5,-222.81 151.5,-222.81"/>
</g>
<!-- cAbstractHistogram -->
<g id="node3" class="node">
<title>cAbstractHistogram</title>
<polygon fill="none" stroke="black" points="232.5,-123 77.5,-123 77.5,-87 232.5,-87 232.5,-123"/>
<text text-anchor="middle" x="155" y="-101.3" font-family="Arial" font-size="14.00">cAbstractHistogram</text>
</g>
<!-- cStdDev&#45;&gt;cAbstractHistogram -->
<g id="edge2" class="edge">
<title>cStdDev&#45;&gt;cAbstractHistogram</title>
<path fill="none" stroke="black" d="M155,-149.75C155,-140.77 155,-131.03 155,-123.03"/>
<polygon fill="black" stroke="black" points="151.5,-149.81 155,-159.81 158.5,-149.81 151.5,-149.81"/>
</g>
<!-- cHistogram -->
<g id="node4" class="node">
<title>cHistogram</title>
<polygon fill="none" stroke="black" points="96,-36 0,-36 0,0 96,0 96,-36"/>
<text text-anchor="middle" x="48" y="-14.3" font-family="Arial" font-size="14.00">cHistogram</text>
</g>
<!-- cAbstractHistogram&#45;&gt;cHistogram -->
<g id="edge3" class="edge">
<title>cAbstractHistogram&#45;&gt;cHistogram</title>
<path fill="none" stroke="black" d="M125.08,-80.23C107.46,-66.23 85.57,-48.84 69.62,-36.18"/>
<polygon fill="black" stroke="black" points="123.34,-83.32 133.35,-86.8 127.69,-77.84 123.34,-83.32"/>
</g>
<!-- cPSquare -->
<g id="node5" class="node">
<title>cPSquare</title>
<polygon fill="none" stroke="black" points="195.5,-36 114.5,-36 114.5,0 195.5,0 195.5,-36"/>
<text text-anchor="middle" x="155" y="-14.3" font-family="Arial" font-size="14.00">cPSquare</text>
</g>
<!-- cAbstractHistogram&#45;&gt;cPSquare -->
<g id="edge4" class="edge">
<title>cAbstractHistogram&#45;&gt;cPSquare</title>
<path fill="none" stroke="black" d="M155,-76.73C155,-63.42 155,-47.81 155,-36.18"/>
<polygon fill="black" stroke="black" points="151.5,-76.8 155,-86.8 158.5,-76.8 151.5,-76.8"/>
<text text-anchor="middle" x="167.5" y="-57.8" font-family="Arial" font-size="14.00">(...)</text>
</g>
<!-- cKSplit -->
<g id="node6" class="node">
<title>cKSplit</title>
<polygon fill="none" stroke="black" points="278,-36 214,-36 214,0 278,0 278,-36"/>
<text text-anchor="middle" x="246" y="-14.3" font-family="Arial" font-size="14.00">cKSplit</text>
</g>
<!-- cAbstractHistogram&#45;&gt;cKSplit -->
<g id="edge5" class="edge">
<title>cAbstractHistogram&#45;&gt;cKSplit</title>
<path fill="none" stroke="black" d="M180.85,-79.85C195.77,-65.92 214.17,-48.73 227.61,-36.18"/>
<polygon fill="black" stroke="black" points="178.33,-77.42 173.42,-86.8 183.11,-82.53 178.33,-77.42"/>
<text text-anchor="middle" x="217.5" y="-57.8" font-family="Arial" font-size="14.00">(...)</text>
</g>
</g>
</svg>
