<?xml version="1.0" encoding="UTF-8" standalone="no"?>
<!DOCTYPE svg PUBLIC "-//W3C//DTD SVG 1.1//EN"
 "http://www.w3.org/Graphics/SVG/1.1/DTD/svg11.dtd">
<!-- Generated by graphviz version 2.43.0 (0)
 -->
<!-- Title: g Pages: 1 -->
<svg width="182pt" height="260pt"
 viewBox="0.00 0.00 181.99 260.00" xmlns="http://www.w3.org/2000/svg" xmlns:xlink="http://www.w3.org/1999/xlink">
<g id="graph0" class="graph" transform="scale(1 1) rotate(0) translate(4 256)">
<title>g</title>
<polygon fill="white" stroke="transparent" points="-4,4 -4,-256 177.99,-256 177.99,4 -4,4"/>
<!-- node1 -->
<g id="node1" class="node">
<title>node1</title>
<ellipse fill="none" stroke="black" cx="87" cy="-234" rx="38.99" ry="18"/>
<text text-anchor="middle" x="87" y="-230.3" font-family="Arial" font-size="14.00">node1</text>
</g>
<!-- node2 -->
<g id="node2" class="node">
<title>node2</title>
<ellipse fill="none" stroke="black" cx="39" cy="-162" rx="38.99" ry="18"/>
<text text-anchor="middle" x="39" y="-158.3" font-family="Arial" font-size="14.00">node2</text>
</g>
<!-- node1&#45;&#45;node2 -->
<g id="edge1" class="edge">
<title>node1&#45;&#45;node2</title>
<path fill="none" stroke="black" d="M75.62,-216.41C67.97,-205.25 57.92,-190.6 50.29,-179.47"/>
</g>
<!-- node3 -->
<g id="node5" class="node">
<title>node3</title>
<ellipse fill="none" stroke="black" cx="135" cy="-162" rx="38.99" ry="18"/>
<text text-anchor="middle" x="135" y="-158.3" font-family="Arial" font-size="14.00">node3</text>
</g>
<!-- node1&#45;&#45;node3 -->
<g id="edge4" class="edge">
<title>node1&#45;&#45;node3</title>
<path fill="none" stroke="black" d="M98.37,-216.41C106.02,-205.25 116.07,-190.6 123.7,-179.47"/>
</g>
<!-- node4 -->
<g id="node3" class="node">
<title>node4</title>
<ellipse fill="none" stroke="black" cx="39" cy="-90" rx="38.99" ry="18"/>
<text text-anchor="middle" x="39" y="-86.3" font-family="Arial" font-size="14.00">node4</text>
</g>
<!-- node2&#45;&#45;node4 -->
<g id="edge2" class="edge">
<title>node2&#45;&#45;node4</title>
<path fill="none" stroke="black" d="M39,-143.7C39,-132.85 39,-118.92 39,-108.1"/>
</g>
<!-- node5 -->
<g id="node6" class="node">
<title>node5</title>
<ellipse fill="none" stroke="black" cx="135" cy="-90" rx="38.99" ry="18"/>
<text text-anchor="middle" x="135" y="-86.3" font-family="Arial" font-size="14.00">node5</text>
</g>
<!-- node2&#45;&#45;node5 -->
<g id="edge7" class="edge">
<title>node2&#45;&#45;node5</title>
<path fill="none" stroke="black" d="M58.89,-146.5C75.25,-134.56 98.35,-117.72 114.8,-105.73"/>
</g>
<!-- node6 -->
<g id="node4" class="node">
<title>node6</title>
<ellipse fill="none" stroke="black" cx="87" cy="-18" rx="38.99" ry="18"/>
<text text-anchor="middle" x="87" y="-14.3" font-family="Arial" font-size="14.00">node6</text>
</g>
<!-- node4&#45;&#45;node6 -->
<g id="edge3" class="edge">
<title>node4&#45;&#45;node6</title>
<path fill="none" stroke="black" d="M50.37,-72.41C58.02,-61.25 68.07,-46.6 75.7,-35.47"/>
</g>
<!-- node3&#45;&#45;node4 -->
<g id="edge8" class="edge">
<title>node3&#45;&#45;node4</title>
<path fill="none" stroke="black" d="M115.11,-146.5C98.74,-134.56 75.64,-117.72 59.19,-105.73"/>
</g>
<!-- node3&#45;&#45;node5 -->
<g id="edge5" class="edge">
<title>node3&#45;&#45;node5</title>
<path fill="none" stroke="black" d="M135,-143.7C135,-132.85 135,-118.92 135,-108.1"/>
</g>
<!-- node5&#45;&#45;node6 -->
<g id="edge6" class="edge">
<title>node5&#45;&#45;node6</title>
<path fill="none" stroke="black" d="M123.62,-72.41C115.97,-61.25 105.92,-46.6 98.29,-35.47"/>
</g>
</g>
</svg>
